<?xml version="1.0" encoding="UTF-8" standalone="no"?>
<svg
   viewBox="0 0 48 48"
   width="96px"
   height="96px"
   version="1.1"
   id="svg241"
   sodipodi:docname="clear.svg"
   inkscape:version="1.2.1 (9c6d41e410, 2022-07-14)"
   xmlns:inkscape="http://www.inkscape.org/namespaces/inkscape"
   xmlns:sodipodi="http://sodipodi.sourceforge.net/DTD/sodipodi-0.dtd"
   xmlns="http://www.w3.org/2000/svg"
   xmlns:svg="http://www.w3.org/2000/svg">
  <defs
     id="defs245" />
  <sodipodi:namedview
     id="namedview243"
     pagecolor="#ffffff"
     bordercolor="#000000"
     borderopacity="0.25"
     inkscape:showpageshadow="2"
     inkscape:pageopacity="0.0"
     inkscape:pagecheckerboard="0"
     inkscape:deskcolor="#d1d1d1"
     showgrid="false"
     inkscape:zoom="8.6354167"
     inkscape:cx="48.057901"
     inkscape:cy="48.057901"
     inkscape:window-width="1920"
     inkscape:window-height="1009"
     inkscape:window-x="-8"
     inkscape:window-y="-8"
     inkscape:window-maximized="1"
     inkscape:current-layer="svg241" />
  <path
     fill="#8fcae6"
     d="M39,7H9c-1.654,0-3,1.346-3,3v1c0,1.402,0.967,2.582,2.269,2.91l2.396,25.556 C10.906,42.051,13.047,44,15.643,44h16.715c2.596,0,4.736-1.949,4.979-4.533l2.396-25.557C41.033,13.582,42,12.402,42,11v-1 C42,8.346,40.654,7,39,7z"
     id="path229" />
  <path
     fill="#324561"
     d="M29,9c-0.553,0-1-0.447-1-1V6c0-1.103-0.897-2-2-2h-4c-1.103,0-2,0.897-2,2v2c0,0.553-0.447,1-1,1 s-1-0.447-1-1V6c0-2.206,1.794-4,4-4h4c2.206,0,4,1.794,4,4v2C30,8.553,29.553,9,29,9z"
     id="path231" />
  <path
     fill="#324561"
     d="M24,38c-0.553,0-1-0.447-1-1V21c0-0.553,0.447-1,1-1s1,0.447,1,1v16C25,37.553,24.553,38,24,38z"
     id="path233" />
  <path
     fill="#324561"
     d="M31.001,38c-0.021,0-0.042-0.001-0.063-0.002c-0.551-0.034-0.97-0.509-0.936-1.061l1-16 c0.035-0.552,0.513-0.956,1.061-0.936c0.551,0.034,0.97,0.509,0.936,1.061l-1,16C31.965,37.593,31.524,38,31.001,38z"
     id="path235" />
  <path
     fill="#324561"
     d="M16.999,38c-0.523,0-0.964-0.407-0.997-0.938l-1-16c-0.034-0.552,0.385-1.026,0.936-1.061 c0.541-0.022,1.025,0.384,1.061,0.936l1,16c0.034,0.552-0.385,1.026-0.936,1.061C17.041,37.999,17.021,38,16.999,38z"
     id="path237" />
  <path
     fill="#324561"
     d="M36,15H12c-0.553,0-1-0.447-1-1s0.447-1,1-1h24c0.553,0,1,0.447,1,1S36.553,15,36,15z"
     id="path239" />
  <path
     style="fill:#f2f2f2;stroke-width:0.115802"
     d="M 28.917573,87.655509 C 27.185787,87.229865 25.76591,86.434887 24.392045,85.1217 23.050291,83.839206 22.100696,82.20639 21.660361,80.424608 21.496364,79.761008 20.756776,72.270717 19.053348,54.021713 17.745413,40.00965 16.646404,28.373136 16.611108,28.162792 16.575037,27.947836 16.46098,27.751797 16.350668,27.715151 14.508827,27.103313 13.010543,25.666206 12.377069,23.9038 c -0.309488,-0.861038 -0.437511,-3.637954 -0.224576,-4.871233 0.3794,-2.197409 1.985213,-4.022577 4.175613,-4.746004 0.590524,-0.195033 1.325466,-0.213057 10.090757,-0.247462 l 9.453845,-0.03711 0.0468,1.249908 c 0.05489,1.466092 0.252108,1.989225 0.915402,2.428172 1.08189,0.71596 2.488937,0.332212 3.013044,-0.821756 0.1634,-0.359772 0.215119,-0.755134 0.217056,-1.659283 l 0.0025,-1.186972 H 48 55.932449 l 0.0025,1.186972 c 0.0019,0.904149 0.05366,1.299511 0.217056,1.659283 0.524107,1.153968 1.931155,1.537716 3.013044,0.821756 0.663294,-0.438947 0.860511,-0.96208 0.915403,-2.428172 l 0.0468,-1.249908 9.453845,0.03711 c 8.765286,0.0344 9.500228,0.05243 10.090752,0.247462 2.1904,0.723427 3.796213,2.548595 4.175613,4.746004 0.212936,1.233279 0.08491,4.010195 -0.224576,4.871233 -0.633474,1.762406 -2.131758,3.199513 -3.973599,3.811351 -0.11081,0.03681 -0.223592,0.231716 -0.259029,0.447641 -0.03452,0.210344 -1.132651,11.846858 -2.440292,25.858921 -1.722968,18.462537 -2.441094,25.73153 -2.608423,26.402895 -0.445384,1.787002 -1.393549,3.416194 -2.733633,4.697092 -1.39477,1.333168 -2.801721,2.113392 -4.579587,2.539607 -0.941789,0.225778 -1.366635,0.23075 -19.086269,0.223345 -17.444088,-0.0073 -18.156812,-0.01587 -19.024526,-0.229143 z M 34.71384,75.902796 c 0.911322,-0.380775 1.300635,-0.987619 1.300635,-2.027374 0,-0.391972 -0.445339,-7.833402 -0.989642,-16.536511 -0.832104,-13.304904 -1.021054,-15.887167 -1.186972,-16.221701 -0.514292,-1.036945 -1.768036,-1.445169 -2.802402,-0.912475 -0.718653,0.370103 -1.038288,0.963097 -1.040792,1.930897 -0.0027,1.02838 1.95504,32.214696 2.040095,32.498867 0.132656,0.443209 0.655497,1.010905 1.129117,1.225984 0.584137,0.265268 0.989848,0.276343 1.549961,0.04231 z m 14.096775,-0.03964 c 0.53589,-0.247329 0.916763,-0.627867 1.092407,-1.091443 0.08539,-0.225355 0.123516,-5.423783 0.123516,-16.839041 V 41.419625 l -0.287869,-0.491211 c -0.750237,-1.280184 -2.727101,-1.280184 -3.477338,0 l -0.287869,0.491211 v 16.513047 c 0,11.415258 0.03813,16.613686 0.123516,16.839041 0.260684,0.68802 1.160571,1.305228 1.903022,1.305228 0.191074,0 0.55585,-0.0962 0.810615,-0.213785 z m 13.928931,0.03902 c 0.557453,-0.232861 1.031906,-0.69246 1.178938,-1.142029 0.147299,-0.450384 2.115561,-31.683549 2.06589,-32.782375 -0.02853,-0.631211 -0.09816,-0.897485 -0.313901,-1.200466 -0.506624,-0.711488 -1.641695,-1.018106 -2.476966,-0.669108 -0.468848,0.195898 -1.079307,0.879902 -1.170416,1.311423 -0.08325,0.394276 -2.037566,31.579151 -2.037566,32.51322 0,0.969096 0.399791,1.585322 1.27465,1.964711 0.522589,0.226624 0.944762,0.227943 1.479371,0.0046 z m 9.68575,-45.904493 c 0.554643,-0.128637 0.964285,-0.420581 1.321755,-0.94199 0.230191,-0.335758 0.264414,-0.507387 0.229309,-1.149965 -0.04992,-0.91368 -0.331625,-1.372695 -1.058361,-1.724502 l -0.498963,-0.24154 H 48 23.580964 l -0.498962,0.241544 c -0.726737,0.351807 -1.008444,0.810822 -1.058361,1.724502 -0.03511,0.642578 -8.8e-4,0.814207 0.229308,1.149965 0.345144,0.503429 0.773861,0.819897 1.269112,0.936824 0.55298,0.130559 48.340818,0.135606 48.903235,0.0052 z"
     id="path247"
     transform="scale(0.5)" />
</svg>
