<?xml version="1.0" encoding="UTF-8" standalone="no"?>
<svg
   viewBox="0 0 48 48"
   width="96px"
   height="96px"
   version="1.1"
   id="svg241"
   sodipodi:docname="clear-hover.svg"
   inkscape:version="1.2.1 (9c6d41e410, 2022-07-14)"
   xmlns:inkscape="http://www.inkscape.org/namespaces/inkscape"
   xmlns:sodipodi="http://sodipodi.sourceforge.net/DTD/sodipodi-0.dtd"
   xmlns="http://www.w3.org/2000/svg"
   xmlns:svg="http://www.w3.org/2000/svg">
  <defs
     id="defs245" />
  <sodipodi:namedview
     id="namedview243"
     pagecolor="#ffffff"
     bordercolor="#000000"
     borderopacity="0.25"
     inkscape:showpageshadow="2"
     inkscape:pageopacity="0.0"
     inkscape:pagecheckerboard="0"
     inkscape:deskcolor="#d1d1d1"
     showgrid="false"
     inkscape:zoom="8.6354167"
     inkscape:cx="48.057901"
     inkscape:cy="48.057901"
     inkscape:window-width="1920"
     inkscape:window-height="1009"
     inkscape:window-x="-8"
     inkscape:window-y="-8"
     inkscape:window-maximized="1"
     inkscape:current-layer="svg241" />
  <path
     fill="#8fcae6"
     d="M39,7H9c-1.654,0-3,1.346-3,3v1c0,1.402,0.967,2.582,2.269,2.91l2.396,25.556 C10.906,42.051,13.047,44,15.643,44h16.715c2.596,0,4.736-1.949,4.979-4.533l2.396-25.557C41.033,13.582,42,12.402,42,11v-1 C42,8.346,40.654,7,39,7z"
     id="path229" />
  <path
     fill="#324561"
     d="M29,9c-0.553,0-1-0.447-1-1V6c0-1.103-0.897-2-2-2h-4c-1.103,0-2,0.897-2,2v2c0,0.553-0.447,1-1,1 s-1-0.447-1-1V6c0-2.206,1.794-4,4-4h4c2.206,0,4,1.794,4,4v2C30,8.553,29.553,9,29,9z"
     id="path231" />
  <path
     fill="#324561"
     d="M24,38c-0.553,0-1-0.447-1-1V21c0-0.553,0.447-1,1-1s1,0.447,1,1v16C25,37.553,24.553,38,24,38z"
     id="path233" />
  <path
     fill="#324561"
     d="M31.001,38c-0.021,0-0.042-0.001-0.063-0.002c-0.551-0.034-0.97-0.509-0.936-1.061l1-16 c0.035-0.552,0.513-0.956,1.061-0.936c0.551,0.034,0.97,0.509,0.936,1.061l-1,16C31.965,37.593,31.524,38,31.001,38z"
     id="path235" />
  <path
     fill="#324561"
     d="M16.999,38c-0.523,0-0.964-0.407-0.997-0.938l-1-16c-0.034-0.552,0.385-1.026,0.936-1.061 c0.541-0.022,1.025,0.384,1.061,0.936l1,16c0.034,0.552-0.385,1.026-0.936,1.061C17.041,37.999,17.021,38,16.999,38z"
     id="path237" />
  <path
     fill="#324561"
     d="M36,15H12c-0.553,0-1-0.447-1-1s0.447-1,1-1h24c0.553,0,1,0.447,1,1S36.553,15,36,15z"
     id="path239" />
</svg>
