<?xml version="1.0" encoding="UTF-8" standalone="no"?>
<svg
   width="50px"
   height="50px"
   viewBox="0 0 50 50"
   version="1.1"
   id="svg596"
   sodipodi:docname="progress.svg"
   inkscape:version="1.2.1 (9c6d41e410, 2022-07-14)"
   xmlns:inkscape="http://www.inkscape.org/namespaces/inkscape"
   xmlns:sodipodi="http://sodipodi.sourceforge.net/DTD/sodipodi-0.dtd"
   xmlns="http://www.w3.org/2000/svg"
   xmlns:svg="http://www.w3.org/2000/svg">
  <defs
     id="defs600" />
  <sodipodi:namedview
     id="namedview598"
     pagecolor="#ffffff"
     bordercolor="#000000"
     borderopacity="0.25"
     inkscape:showpageshadow="2"
     inkscape:pageopacity="0.0"
     inkscape:pagecheckerboard="0"
     inkscape:deskcolor="#d1d1d1"
     showgrid="false"
     inkscape:zoom="16.58"
     inkscape:cx="24.969843"
     inkscape:cy="24.969843"
     inkscape:window-width="1920"
     inkscape:window-height="1009"
     inkscape:window-x="-8"
     inkscape:window-y="-8"
     inkscape:window-maximized="1"
     inkscape:current-layer="svg596" />
  <path
     transform="rotate(000, 25, 25)"  
     d="M41.9 23.9c-.3-6.1-4-11.8-9.5-14.4-6-2.7-13.3-1.6-18.3 2.6-4.8 4-7 10.5-5.6 16.6 1.3 6 6 10.9 11.9 12.5 7.1 2 13.6-1.4 17.6-7.2-3.6 4.8-9.1 8-15.2 6.9-6.1-1.1-11.1-5.7-12.5-11.7-1.5-6.4 1.5-13.1 7.2-16.4 5.9-3.4 14.2-2.1 18.1 3.7 1 1.4 1.7 3.1 2 4.8.3 1.4.2 2.9.4 4.3.2 1.3 1.3 3 2.8 2.1 1.3-.8 1.2-2.5 1.1-3.8 0-.4.1.7 0 0z"
     id="path594"
     style="fill:#ffff00" />
</svg>
