<?xml version="1.0" encoding="UTF-8" standalone="no"?>
<svg
   viewBox="0 0 80 80"
   width="80px"
   height="80px"
   version="1.1"
   id="svg28"
   sodipodi:docname="refresh-hover.svg"
   inkscape:version="1.2.1 (9c6d41e410, 2022-07-14)"
   xmlns:inkscape="http://www.inkscape.org/namespaces/inkscape"
   xmlns:sodipodi="http://sodipodi.sourceforge.net/DTD/sodipodi-0.dtd"
   xmlns="http://www.w3.org/2000/svg"
   xmlns:svg="http://www.w3.org/2000/svg">
  <defs
     id="defs32" />
  <sodipodi:namedview
     id="namedview30"
     pagecolor="#ffffff"
     bordercolor="#000000"
     borderopacity="0.25"
     inkscape:showpageshadow="2"
     inkscape:pageopacity="0.0"
     inkscape:pagecheckerboard="0"
     inkscape:deskcolor="#d1d1d1"
     showgrid="false"
     inkscape:zoom="10.3625"
     inkscape:cx="39.951749"
     inkscape:cy="39.951749"
     inkscape:window-width="1920"
     inkscape:window-height="1009"
     inkscape:window-x="-8"
     inkscape:window-y="-8"
     inkscape:window-maximized="1"
     inkscape:current-layer="svg28" />
  <path
     fill="#8bb7f0"
     d="m 72.793,71.5 -5.659,-5.659 0.328,-0.354 C 73.936,58.534 77.5,49.482 77.5,40 77.5,19.322 60.678,2.5 40,2.5 c -1.696,0 -3.499,0.146 -5.5,0.448 v 9.098 C 36.341,11.684 38.188,11.5 40,11.5 c 15.715,0 28.5,12.785 28.5,28.5 0,7.031 -2.628,13.803 -7.399,19.066 L 60.748,59.455 54.5,53.206 V 71.5 Z"
     id="path18" />
  <path
     fill="#4e7ab5"
     d="m 40,3 c -1.55,0 -3.193,0.125 -5,0.38 v 8.064 C 36.675,11.149 38.351,11 40,11 c 15.991,0 29,13.009 29,29 0,7.156 -2.674,14.047 -7.529,19.402 L 60.766,60.18 60.023,59.437 55,54.414 V 71 H 71.586 L 67.122,66.536 66.44,65.854 67.097,65.148 C 73.483,58.285 77,49.355 77,40 77,19.598 60.402,3 40,3 m 0,-1 c 20.987,0 38,17.013 38,38 0,9.987 -3.867,19.055 -10.172,25.828 L 74,72 H 54 V 52 l 6.73,6.73 C 65.227,53.771 68,47.224 68,40 68,24.536 55.464,12 40,12 c -2.062,0 -4.065,0.238 -6,0.661 V 2.519 C 35.959,2.207 37.953,2 40,2 Z"
     id="path20" />
  <g
     id="g26"
     transform="matrix(-1,0,0,1,80,0)">
    <path
       fill="#8bb7f0"
       d="m 40,77.5 c -1.696,0 -3.499,-0.146 -5.5,-0.448 V 67.954 C 36.341,68.316 38.187,68.5 40,68.5 55.715,68.5 68.5,55.715 68.5,40 68.5,32.957 65.875,26.183 61.109,20.925 L 60.756,20.536 54.5,26.793 V 8.5 h 18.293 l -5.676,5.675 0.328,0.354 C 73.93,21.495 77.5,30.541 77.5,40 77.5,60.678 60.678,77.5 40,77.5 Z"
       id="path22" />
    <path
       fill="#4e7ab5"
       d="m 71.586,9 -4.481,4.481 -0.682,0.682 0.657,0.706 C 73.477,21.743 77,30.668 77,40 77,60.402 60.402,77 40,77 38.45,77 36.807,76.875 35,76.62 V 68.556 C 36.675,68.851 38.351,69 40,69 55.991,69 69,55.991 69,40 69,32.832 66.329,25.939 61.48,20.589 L 60.775,19.811 60.032,20.554 55,25.586 V 9 H 71.586 M 74,8 H 54 v 20 l 6.739,-6.739 C 65.235,26.221 68,32.776 68,40 68,55.464 55.464,68 40,68 37.938,68 35.935,67.762 34,67.339 V 77.481 C 35.959,77.793 37.953,78 40,78 60.987,78 78,60.987 78,40 78,30.013 74.116,20.962 67.812,14.188 L 74,8 Z"
       id="path24" />
  </g>
</svg>
