<?xml version="1.0" encoding="UTF-8" standalone="no"?>
<svg
   viewBox="0 0 80 80"
   width="80px"
   height="80px"
   version="1.1"
   id="svg28"
   sodipodi:docname="refresh.svg"
   inkscape:version="1.2.1 (9c6d41e410, 2022-07-14)"
   xmlns:inkscape="http://www.inkscape.org/namespaces/inkscape"
   xmlns:sodipodi="http://sodipodi.sourceforge.net/DTD/sodipodi-0.dtd"
   xmlns="http://www.w3.org/2000/svg"
   xmlns:svg="http://www.w3.org/2000/svg">
  <defs
     id="defs32" />
  <sodipodi:namedview
     id="namedview30"
     pagecolor="#ffffff"
     bordercolor="#000000"
     borderopacity="0.25"
     inkscape:showpageshadow="2"
     inkscape:pageopacity="0.0"
     inkscape:pagecheckerboard="0"
     inkscape:deskcolor="#d1d1d1"
     showgrid="false"
     inkscape:zoom="10.3625"
     inkscape:cx="39.951749"
     inkscape:cy="39.951749"
     inkscape:window-width="1920"
     inkscape:window-height="1009"
     inkscape:window-x="-8"
     inkscape:window-y="-8"
     inkscape:window-maximized="1"
     inkscape:current-layer="svg28" />
  <path
     fill="#8bb7f0"
     d="M7.207,71.5l5.659-5.659l-0.328-0.354C6.064,58.534,2.5,49.482,2.5,40C2.5,19.322,19.322,2.5,40,2.5 c1.696,0,3.499,0.146,5.5,0.448v9.098C43.659,11.684,41.812,11.5,40,11.5c-15.715,0-28.5,12.785-28.5,28.5 c0,7.031,2.628,13.803,7.399,19.066l0.353,0.389l6.248-6.249V71.5H7.207z"
     id="path18" />
  <path
     fill="#4e7ab5"
     d="M40,3c1.55,0,3.193,0.125,5,0.38v8.064C43.325,11.149,41.649,11,40,11c-15.991,0-29,13.009-29,29 c0,7.156,2.674,14.047,7.529,19.402l0.705,0.778l0.743-0.743L25,54.414V71H8.414l4.464-4.464l0.682-0.682l-0.657-0.706 C6.517,58.285,3,49.355,3,40C3,19.598,19.598,3,40,3 M40,2C19.013,2,2,19.013,2,40c0,9.987,3.867,19.055,10.172,25.828L6,72h20V52 l-6.73,6.73C14.773,53.771,12,47.224,12,40c0-15.464,12.536-28,28-28c2.062,0,4.065,0.238,6,0.661V2.519 C44.041,2.207,42.047,2,40,2L40,2z"
     id="path20" />
  <g
     id="g26">
    <path
       fill="#8bb7f0"
       d="M40,77.5c-1.696,0-3.499-0.146-5.5-0.448v-9.098c1.841,0.362,3.687,0.546,5.5,0.546 c15.715,0,28.5-12.785,28.5-28.5c0-7.043-2.625-13.817-7.391-19.075l-0.353-0.389L54.5,26.793V8.5h18.293l-5.676,5.675l0.328,0.354 C73.93,21.495,77.5,30.541,77.5,40C77.5,60.678,60.678,77.5,40,77.5z"
       id="path22" />
    <path
       fill="#4e7ab5"
       d="M71.586,9l-4.481,4.481l-0.682,0.682l0.657,0.706C73.477,21.743,77,30.668,77,40 c0,20.402-16.598,37-37,37c-1.55,0-3.193-0.125-5-0.38v-8.064C36.675,68.851,38.351,69,40,69c15.991,0,29-13.009,29-29 c0-7.168-2.671-14.061-7.52-19.411l-0.705-0.778l-0.743,0.743L55,25.586V9H71.586 M74,8H54v20l6.739-6.739 C65.235,26.221,68,32.776,68,40c0,15.464-12.536,28-28,28c-2.062,0-4.065-0.238-6-0.661v10.142C35.959,77.793,37.953,78,40,78 c20.987,0,38-17.013,38-38c0-9.987-3.884-19.038-10.188-25.812L74,8L74,8z"
       id="path24" />
  </g>
  <path
     style="fill:#f2f2f2;stroke-width:0.0965018"
     d="M 11.085748,68.383498 13.62972,65.838167 12.833481,64.981809 C 8.2112502,60.010584 4.9621646,53.557564 3.680669,46.803378 3.2196008,44.373295 3.1363088,43.332317 3.1363088,40 c 0,-3.332317 0.083292,-4.373295 0.5443602,-6.803378 1.8504203,-9.752732 7.587441,-18.42509 15.812697,-23.9032347 4.858029,-3.2355211 10.079513,-5.1844712 16.0193,-5.9792992 1.668823,-0.2233124 6.477313,-0.2481212 8.27503,-0.042694 l 1.182147,0.1350853 v 4.0024298 4.0024298 l -0.313631,-0.06339 C 42.889659,10.990922 38.91693,10.890704 36.719598,11.14774 32.138942,11.683568 27.75923,13.27828 23.9807,15.786144 16.810458,20.545136 12.150599,28.146416 11.14774,36.719598 c -0.191396,1.636199 -0.191685,4.92214 -5.79e-4,6.555887 0.718965,6.146242 3.420821,11.977251 7.639665,16.487536 l 0.443769,0.474426 2.881685,-2.880485 2.881689,-2.880484 v 8.226176 8.226176 H 16.767873 8.5417758 Z"
     id="path207" />
  <path
     style="fill:#f2f2f2;stroke-width:0.0965018"
     d="m 37.539204,76.865828 c -0.07961,-0.01953 -0.676719,-0.08879 -1.3269,-0.153906 l -1.182147,-0.118401 v -4.00243 -4.00243 l 0.313631,0.06339 c 1.59998,0.323365 5.658157,0.457628 7.551266,0.24983 3.688114,-0.404827 6.87382,-1.332263 10.083938,-2.935675 8.823164,-4.40706 14.73915,-12.89479 15.885386,-22.790937 C 69.0626,41.463901 69.006286,37.441669 68.7625,35.898673 68.539896,34.489731 68.170402,32.862247 67.780629,31.57389 66.571673,27.577793 64.29527,23.608954 61.347662,20.358208 l -0.558247,-0.615659 -2.891692,2.890486 -2.891692,2.890487 V 17.297346 9.0711701 h 8.226096 8.226097 l -2.549538,2.5509009 -2.549539,2.550901 0.571934,0.612129 c 5.377714,5.75566 8.683983,12.779594 9.756767,20.727565 0.252686,1.872081 0.252562,7.104183 -1.93e-4,8.974668 -1.565494,11.584264 -7.870119,21.228715 -17.821551,27.262353 -4.130201,2.504176 -9.051376,4.20229 -14.282268,4.928279 -1.012985,0.140591 -6.626986,0.290301 -7.044632,0.187862 z"
     id="path209" />
</svg>
