<?xml version="1.0" encoding="UTF-8" standalone="no"?>
<svg
   viewBox="0 0 80 80"
   width="80px"
   height="80px"
   version="1.1"
   id="svg28"
   sodipodi:docname="refresh-hover.svg"
   inkscape:version="1.2.1 (9c6d41e410, 2022-07-14)"
   xmlns:inkscape="http://www.inkscape.org/namespaces/inkscape"
   xmlns:sodipodi="http://sodipodi.sourceforge.net/DTD/sodipodi-0.dtd"
   xmlns="http://www.w3.org/2000/svg"
   xmlns:svg="http://www.w3.org/2000/svg">
  <defs
     id="defs32" />
  <sodipodi:namedview
     id="namedview30"
     pagecolor="#ffffff"
     bordercolor="#000000"
     borderopacity="0.25"
     inkscape:showpageshadow="2"
     inkscape:pageopacity="0.0"
     inkscape:pagecheckerboard="0"
     inkscape:deskcolor="#d1d1d1"
     showgrid="false"
     inkscape:zoom="10.3625"
     inkscape:cx="39.951749"
     inkscape:cy="39.951749"
     inkscape:window-width="1920"
     inkscape:window-height="1009"
     inkscape:window-x="-8"
     inkscape:window-y="-8"
     inkscape:window-maximized="1"
     inkscape:current-layer="svg28" />
  <path
     fill="#8bb7f0"
     d="M7.207,71.5l5.659-5.659l-0.328-0.354C6.064,58.534,2.5,49.482,2.5,40C2.5,19.322,19.322,2.5,40,2.5 c1.696,0,3.499,0.146,5.5,0.448v9.098C43.659,11.684,41.812,11.5,40,11.5c-15.715,0-28.5,12.785-28.5,28.5 c0,7.031,2.628,13.803,7.399,19.066l0.353,0.389l6.248-6.249V71.5H7.207z"
     id="path18" />
  <path
     fill="#4e7ab5"
     d="M40,3c1.55,0,3.193,0.125,5,0.38v8.064C43.325,11.149,41.649,11,40,11c-15.991,0-29,13.009-29,29 c0,7.156,2.674,14.047,7.529,19.402l0.705,0.778l0.743-0.743L25,54.414V71H8.414l4.464-4.464l0.682-0.682l-0.657-0.706 C6.517,58.285,3,49.355,3,40C3,19.598,19.598,3,40,3 M40,2C19.013,2,2,19.013,2,40c0,9.987,3.867,19.055,10.172,25.828L6,72h20V52 l-6.73,6.73C14.773,53.771,12,47.224,12,40c0-15.464,12.536-28,28-28c2.062,0,4.065,0.238,6,0.661V2.519 C44.041,2.207,42.047,2,40,2L40,2z"
     id="path20" />
  <g
     id="g26">
    <path
       fill="#8bb7f0"
       d="M40,77.5c-1.696,0-3.499-0.146-5.5-0.448v-9.098c1.841,0.362,3.687,0.546,5.5,0.546 c15.715,0,28.5-12.785,28.5-28.5c0-7.043-2.625-13.817-7.391-19.075l-0.353-0.389L54.5,26.793V8.5h18.293l-5.676,5.675l0.328,0.354 C73.93,21.495,77.5,30.541,77.5,40C77.5,60.678,60.678,77.5,40,77.5z"
       id="path22" />
    <path
       fill="#4e7ab5"
       d="M71.586,9l-4.481,4.481l-0.682,0.682l0.657,0.706C73.477,21.743,77,30.668,77,40 c0,20.402-16.598,37-37,37c-1.55,0-3.193-0.125-5-0.38v-8.064C36.675,68.851,38.351,69,40,69c15.991,0,29-13.009,29-29 c0-7.168-2.671-14.061-7.52-19.411l-0.705-0.778l-0.743,0.743L55,25.586V9H71.586 M74,8H54v20l6.739-6.739 C65.235,26.221,68,32.776,68,40c0,15.464-12.536,28-28,28c-2.062,0-4.065-0.238-6-0.661v10.142C35.959,77.793,37.953,78,40,78 c20.987,0,38-17.013,38-38c0-9.987-3.884-19.038-10.188-25.812L74,8L74,8z"
       id="path24" />
  </g>
</svg>
