<?xml version="1.0" encoding="UTF-8" standalone="no"?>
<svg
   viewBox="0 0 80 80"
   width="80px"
   height="80px"
   version="1.1"
   id="svg28"
   sodipodi:docname="refresh.svg"
   inkscape:version="1.2.1 (9c6d41e410, 2022-07-14)"
   xmlns:inkscape="http://www.inkscape.org/namespaces/inkscape"
   xmlns:sodipodi="http://sodipodi.sourceforge.net/DTD/sodipodi-0.dtd"
   xmlns="http://www.w3.org/2000/svg"
   xmlns:svg="http://www.w3.org/2000/svg">
  <defs
     id="defs32" />
  <sodipodi:namedview
     id="namedview30"
     pagecolor="#ffffff"
     bordercolor="#000000"
     borderopacity="0.25"
     inkscape:showpageshadow="2"
     inkscape:pageopacity="0.0"
     inkscape:pagecheckerboard="0"
     inkscape:deskcolor="#d1d1d1"
     showgrid="false"
     inkscape:zoom="10.3625"
     inkscape:cx="39.951749"
     inkscape:cy="39.951749"
     inkscape:window-width="1920"
     inkscape:window-height="1009"
     inkscape:window-x="-8"
     inkscape:window-y="-8"
     inkscape:window-maximized="1"
     inkscape:current-layer="svg28" />
  <path
     fill="#8bb7f0"
     d="m 72.793,71.5 -5.659,-5.659 0.328,-0.354 C 73.936,58.534 77.5,49.482 77.5,40 77.5,19.322 60.678,2.5 40,2.5 c -1.696,0 -3.499,0.146 -5.5,0.448 v 9.098 C 36.341,11.684 38.188,11.5 40,11.5 c 15.715,0 28.5,12.785 28.5,28.5 0,7.031 -2.628,13.803 -7.399,19.066 L 60.748,59.455 54.5,53.206 V 71.5 Z"
     id="path18" />
  <path
     fill="#4e7ab5"
     d="m 40,3 c -1.55,0 -3.193,0.125 -5,0.38 v 8.064 C 36.675,11.149 38.351,11 40,11 c 15.991,0 29,13.009 29,29 0,7.156 -2.674,14.047 -7.529,19.402 L 60.766,60.18 60.023,59.437 55,54.414 V 71 H 71.586 L 67.122,66.536 66.44,65.854 67.097,65.148 C 73.483,58.285 77,49.355 77,40 77,19.598 60.402,3 40,3 m 0,-1 c 20.987,0 38,17.013 38,38 0,9.987 -3.867,19.055 -10.172,25.828 L 74,72 H 54 V 52 l 6.73,6.73 C 65.227,53.771 68,47.224 68,40 68,24.536 55.464,12 40,12 c -2.062,0 -4.065,0.238 -6,0.661 V 2.519 C 35.959,2.207 37.953,2 40,2 Z"
     id="path20" />
  <g
     id="g26"
     transform="matrix(-1,0,0,1,80,0)">
    <path
       fill="#8bb7f0"
       d="m 40,77.5 c -1.696,0 -3.499,-0.146 -5.5,-0.448 V 67.954 C 36.341,68.316 38.187,68.5 40,68.5 55.715,68.5 68.5,55.715 68.5,40 68.5,32.957 65.875,26.183 61.109,20.925 L 60.756,20.536 54.5,26.793 V 8.5 h 18.293 l -5.676,5.675 0.328,0.354 C 73.93,21.495 77.5,30.541 77.5,40 77.5,60.678 60.678,77.5 40,77.5 Z"
       id="path22" />
    <path
       fill="#4e7ab5"
       d="m 71.586,9 -4.481,4.481 -0.682,0.682 0.657,0.706 C 73.477,21.743 77,30.668 77,40 77,60.402 60.402,77 40,77 38.45,77 36.807,76.875 35,76.62 V 68.556 C 36.675,68.851 38.351,69 40,69 55.991,69 69,55.991 69,40 69,32.832 66.329,25.939 61.48,20.589 L 60.775,19.811 60.032,20.554 55,25.586 V 9 H 71.586 M 74,8 H 54 v 20 l 6.739,-6.739 C 65.235,26.221 68,32.776 68,40 68,55.464 55.464,68 40,68 37.938,68 35.935,67.762 34,67.339 V 77.481 C 35.959,77.793 37.953,78 40,78 60.987,78 78,60.987 78,40 78,30.013 74.116,20.962 67.812,14.188 L 74,8 Z"
       id="path24" />
  </g>
  <path
     style="fill:#f2f2f2;stroke-width:0.0965018"
     d="m 68.914252,68.383498 -2.543972,-2.545331 0.796239,-0.856358 c 4.622231,-4.971225 7.871316,-11.424245 9.152812,-18.178431 0.461068,-2.430083 0.54436,-3.471061 0.54436,-6.803378 0,-3.332317 -0.08329,-4.373295 -0.54436,-6.803378 C 74.468911,23.44389 68.73189,14.771532 60.506634,9.2933873 55.648605,6.0578662 50.427121,4.1089161 44.487334,3.3140881 42.818511,3.0907757 38.010021,3.0659669 36.212304,3.2713941 l -1.182147,0.1350853 v 4.0024298 4.0024298 l 0.313631,-0.06339 c 1.766553,-0.357027 5.739282,-0.457245 7.936614,-0.200209 4.580656,0.535828 8.960368,2.13054 12.738898,4.638404 7.170242,4.758992 11.830101,12.360272 12.83296,20.933454 0.191396,1.636199 0.191685,4.92214 5.79e-4,6.555887 -0.718965,6.146242 -3.420821,11.977251 -7.639665,16.487536 l -0.443769,0.474426 -2.881685,-2.880485 -2.881689,-2.880484 v 8.226176 8.226176 h 8.226096 8.226097 z"
     id="path207" />
  <path
     style="fill:#f2f2f2;stroke-width:0.0965018"
     d="m 42.460796,76.865828 c 0.07961,-0.01953 0.676719,-0.08879 1.3269,-0.153906 l 1.182147,-0.118401 v -4.00243 -4.00243 l -0.313631,0.06339 c -1.59998,0.323365 -5.658157,0.457628 -7.551266,0.24983 -3.688114,-0.404827 -6.87382,-1.332263 -10.083938,-2.935675 -8.823164,-4.40706 -14.73915,-12.89479 -15.885386,-22.790937 -0.198222,-1.711368 -0.141908,-5.7336 0.101878,-7.276596 0.222604,-1.408942 0.592098,-3.036426 0.981871,-4.324783 1.208956,-3.996097 3.485359,-7.964936 6.432967,-11.215682 l 0.558247,-0.615659 2.891692,2.890486 2.891692,2.890487 V 17.297346 9.0711701 H 16.767873 8.541776 l 2.549538,2.5509009 2.549539,2.550901 -0.571934,0.612129 c -5.377714,5.75566 -8.683983,12.779594 -9.756767,20.727565 -0.252686,1.872081 -0.252562,7.104183 1.93e-4,8.974668 1.565494,11.584264 7.870119,21.228715 17.821551,27.262353 4.130201,2.504176 9.051376,4.20229 14.282268,4.928279 1.012985,0.140591 6.626986,0.290301 7.044632,0.187862 z"
     id="path209" />
</svg>
